<svg width="62" height="177" viewBox="0 0 62 177" fill="none" xmlns="http://www.w3.org/2000/svg">
<g opacity="0.59">
<path d="M38.9581 172.095C38.4291 163.181 38.1099 154.248 37.802 145.323C37.3989 133.38 37.0865 121.434 36.8137 109.483C36.5238 96.4406 36.2934 83.3893 36.1354 70.3483C35.9802 58.1611 35.8762 45.9769 35.843 33.7928C35.81 24.3902 35.8876 14.982 35.744 5.5851C35.7327 4.7429 35.6803 3.89628 35.7101 3.05849C35.7539 1.96866 34.1028 1.96966 34.0674 3.04786C33.9988 4.87059 33.7743 6.73684 33.6675 8.57555C33.5496 10.6867 33.4502 12.7848 33.3735 14.9004C33.1968 19.8747 33.1307 24.8432 33.0958 29.8176C33.0139 41.7685 33.0724 53.7093 33.2032 65.6604C33.3513 78.7029 33.5619 91.757 33.8419 104.801C34.0978 116.984 34.4047 129.17 34.8023 141.353C35.1091 150.757 35.4358 160.159 35.9439 169.555C35.985 170.392 36.0374 171.239 36.0884 172.075C36.2017 173.965 39.0715 173.985 38.9567 172.085L38.9581 172.095Z" fill="#997052"/>
</g>
<path d="M23.1711 3.56252C22.1242 60.0551 23.0721 116.611 25.737 173.271C30.2867 173.348 34.8447 173.413 38.8082 173.012C38.0577 116.282 37.5037 58.6056 36.5304 2.91793C32.2094 3.29759 27.3914 3.39546 23.1795 3.55087L23.1711 3.56252Z" fill="#E2AC7A"/>
<path d="M31.2446 173.177C32.8617 171.275 33.5024 168.65 32.9184 166.172C32.3533 163.754 30.5869 161.782 28.369 160.813C27.2764 160.337 25.602 159.831 24.4771 160.453C24.2241 160.594 24.2935 161.001 24.5677 161.076C25.1803 161.247 25.8593 161.179 26.4827 161.286C27.1359 161.389 27.7742 161.598 28.3733 161.886C29.6057 162.488 30.6249 163.433 31.2898 164.659C32.584 167.075 32.2071 170.328 30.459 172.375C29.9918 172.922 30.7788 173.735 31.246 173.187L31.2446 173.177Z" fill="#997052"/>
<path d="M38.0304 161.28C34.9036 159.08 32.2162 156.21 30.1603 152.947C27.9998 149.522 26.6482 145.739 25.8953 141.755C25.4027 139.139 25.0826 136.456 24.3251 133.899C24.2611 133.669 23.9412 133.768 23.9838 133.991C24.8229 138.567 24.9637 143.286 26.4615 147.725C27.7307 151.499 29.7771 155.045 32.397 158.007C33.8763 159.677 35.5431 161.174 37.3518 162.463C38.0644 162.974 38.75 161.769 38.029 161.27L38.0304 161.28Z" fill="#997052"/>
<path d="M38.4732 150.902C32.8817 145.414 29.018 138.226 27.471 130.461C25.9167 122.645 27.0123 114.453 30.2297 107.265C31.1396 105.236 32.1918 103.281 33.4122 101.436C34.6325 99.5913 36.0627 97.9348 37.407 96.1762C37.8148 95.6375 37.1904 94.9681 36.6671 95.4089C35.1453 96.7142 33.8798 98.3883 32.7463 100.064C31.6043 101.752 30.5962 103.524 29.7305 105.369C28.0129 109.015 26.8563 112.966 26.3072 116.984C25.2175 125.008 26.5873 133.226 30.0617 140.523C32.0069 144.625 34.6406 148.377 37.8194 151.56C38.2464 151.988 38.9086 151.318 38.4717 150.892L38.4732 150.902Z" fill="#997052"/>
<path d="M38.1481 138.521C35.3849 135.34 33.524 131.33 32.7841 127.156C32.0511 122.96 32.5724 118.612 34.1392 114.696C34.5843 113.579 35.1176 112.512 35.7605 111.501C36.3935 110.492 37.1947 109.594 37.8391 108.594C38.0048 108.341 37.6571 108.11 37.4498 108.286C36.6402 108.987 36.0211 109.953 35.4442 110.86C34.8588 111.779 34.3305 112.741 33.8577 113.737C32.9106 115.719 32.2268 117.84 31.867 120.028C31.1556 124.393 31.6907 128.898 33.3805 132.986C34.3379 135.316 35.714 137.459 37.3465 139.346C37.834 139.911 38.6356 139.086 38.1481 138.521Z" fill="#997052"/>
<path d="M24.4763 108.52C24.6763 103.428 26.7313 98.6904 28.994 94.2664C31.3114 89.7303 33.9912 85.3184 35.6311 80.4435C36.0776 79.1283 36.419 77.7867 36.6751 76.4159C36.9327 75.0553 37.1387 73.6188 36.9862 72.2242C36.946 71.9488 36.5899 71.9382 36.5705 72.2223C36.4612 73.4884 36.4328 74.7531 36.2214 76.0132C36.0253 77.2398 35.6928 78.4343 35.3063 79.6053C34.5025 82.0144 33.4101 84.3197 32.205 86.5476C29.7642 91.0704 26.9093 95.3932 25.0393 100.218C24.0073 102.869 23.3265 105.635 23.218 108.506C23.1881 109.343 24.4434 109.337 24.4748 108.51L24.4763 108.52Z" fill="#997052"/>
<path d="M22.4395 27.5989C25.5976 29.8057 28.3697 32.6313 30.635 35.8016C32.8873 38.9529 34.5762 42.4781 35.0915 46.3618C35.6558 50.5821 35.2307 54.8946 33.9213 58.9088C33.2847 60.8664 32.4562 62.7581 31.4397 64.5419C30.4708 66.2353 29.3467 67.8368 28.2538 69.4441C25.891 72.9034 23.5267 76.5609 23.2806 80.9201C23.2652 81.162 23.6699 81.228 23.7052 80.9833C24.3118 77.0819 26.5035 73.6997 28.7239 70.5841C31.0946 67.2487 33.4584 63.9352 34.8323 60.0158C36.2394 55.9769 36.8099 51.5495 36.367 47.2594C36.1595 45.2789 35.7664 43.3464 35.0405 41.4937C34.3018 39.6219 33.3467 37.865 32.2518 36.191C29.8111 32.442 26.6918 29.042 23.1533 26.3802C22.4248 25.83 21.6871 27.0939 22.4439 27.6296L22.4395 27.5989Z" fill="#997052"/>
<path d="M22.245 35.649C24.0021 37.0702 25.5072 38.7782 26.7652 40.668C27.9186 42.396 28.896 44.3059 29.3962 46.3478C30.6454 51.3747 27.8063 55.9452 25.4736 60.0981C24.1545 62.4468 22.9227 64.9079 22.5707 67.6366C22.521 68.0605 23.1797 68.1312 23.2849 67.7408C24.5761 62.6979 27.918 58.6584 29.6119 53.8069C30.4038 51.5245 30.7295 49.1018 30.2581 46.7014C29.8457 44.6362 28.9785 42.6478 27.9154 40.8441C26.5983 38.6191 24.9053 36.5948 22.9241 34.9562C22.4406 34.5578 21.753 35.2623 22.245 35.649Z" fill="#997052"/>
<path d="M36.0317 34.671C32.4829 31.9378 29.7758 28.0298 28.4248 23.6949C27.0273 19.1792 27.1752 14.355 28.7287 9.93016C29.1658 8.68923 29.711 7.49511 30.356 6.35934C31.0247 5.17842 31.8759 4.13754 32.5005 2.93181C32.7387 2.48039 32.2016 2.13156 31.8474 2.41237C30.8767 3.18933 30.2159 4.2857 29.5947 5.37634C28.9905 6.44367 28.4859 7.56941 28.0568 8.72583C27.19 11.0503 26.6917 13.5399 26.5892 16.0343C26.3887 20.8453 27.689 25.6669 30.2354 29.7234C31.6491 31.9864 33.4354 33.9555 35.499 35.603C36.0266 36.0261 36.5594 35.0942 36.0233 34.6827L36.0317 34.671Z" fill="#997052"/>
<path d="M36.5027 27.4038C32.5225 23.3792 31.449 17.0556 33.9697 11.969C34.3225 11.2612 34.7208 10.5886 35.1747 9.94944C35.6132 9.3438 36.272 8.78939 36.5652 8.09033C36.6922 7.78012 36.4706 7.30194 36.0857 7.44138C35.4037 7.69703 34.9086 8.33173 34.4641 8.89656C34.0112 9.47304 33.5841 10.0875 33.2224 10.734C32.4907 12.0387 31.9514 13.482 31.6605 14.9621C31.0481 17.9892 31.4365 21.1413 32.688 23.9592C33.408 25.5629 34.4221 27.0298 35.6475 28.2785C36.2059 28.8431 37.0611 27.9684 36.5027 27.4038Z" fill="#997052"/>
<path d="M39.6751 173.261C38.9921 151.056 38.4494 128.84 38.0585 106.624C37.6641 84.5226 37.4016 62.4228 37.2711 40.3246C37.2337 34.0897 37.2062 27.8534 37.1803 21.6273C37.1698 18.5659 37.1592 15.5046 37.1586 12.4418C37.1531 9.2756 37.2552 6.0833 37.027 2.91826C36.9814 2.25815 36.0792 2.25418 36.0241 2.91853C35.8174 5.74065 35.8974 8.58351 35.895 11.4175C35.8962 14.1364 35.8973 16.8553 35.9083 19.5728C35.917 25.1242 35.9372 30.6844 35.9657 36.233C36.0243 47.3404 36.1126 58.4434 36.2322 69.5523C36.4748 91.655 36.8593 113.758 37.333 135.848C37.5992 148.31 37.8868 160.78 38.2239 173.243C38.2516 174.198 39.6914 174.206 39.6637 173.252L39.6751 173.261Z" fill="#520C05"/>
<path d="M25.9095 173.204C25.2265 150.999 24.6838 128.784 24.2929 106.567C23.8985 84.4658 23.636 62.366 23.5055 40.2678C23.4681 34.033 23.4406 27.7967 23.4147 21.5706C23.4041 18.5092 23.3936 15.4479 23.393 12.3851C23.3875 9.21891 23.4896 6.02653 23.2613 2.86149C23.2158 2.20139 22.3136 2.19741 22.2585 2.86177C22.0518 5.68389 22.1318 8.52676 22.1294 11.3608C22.1305 14.0797 22.1317 16.7986 22.1427 19.516C22.1514 25.0675 22.1715 30.6277 22.2001 36.1763C22.2586 47.2837 22.347 58.3867 22.4665 69.4956C22.7092 91.5983 23.0937 113.701 23.5674 135.791C23.8336 148.254 24.1212 160.724 24.4583 173.186C24.4859 174.141 25.9258 174.15 25.8981 173.195L25.9095 173.204Z" fill="#520C05"/>
<path d="M23.1622 3.50113C25.5211 3.49075 27.8701 3.48177 30.229 3.47138C31.3737 3.47125 32.5269 3.4595 33.6716 3.45937C34.2787 3.45424 34.8773 3.46077 35.4859 3.46585C36.0434 3.46795 36.6822 3.54154 37.2 3.34106C37.4292 3.24516 37.5641 2.85043 37.2725 2.72624C36.7632 2.49835 36.2002 2.5283 35.6611 2.51311C35.061 2.49639 34.4494 2.47091 33.8493 2.45419C32.6688 2.41785 31.4954 2.35967 30.3134 2.31313C27.9298 2.22295 25.5446 2.12254 23.1609 2.03236C22.223 1.99194 22.2248 3.53352 23.1652 3.52149L23.1622 3.50113Z" fill="#520C05"/>
<path d="M26.6907 174.184C28.7982 174.116 30.9101 174.079 33.019 174.022C34.0486 173.997 35.0684 173.974 36.0896 173.96C37.1406 173.942 38.2362 174.022 39.2718 173.83C39.6572 173.763 39.6459 173.129 39.268 173.039C38.2621 172.81 37.1943 172.851 36.1755 172.812C35.1171 172.779 34.0686 172.744 33.0117 172.721C30.8978 172.675 28.7914 172.68 26.678 172.706C25.7575 172.715 25.7618 174.205 26.6793 174.175L26.6907 174.184Z" fill="#520C05"/>
</svg>
