<svg width="1280" height="396" viewBox="0 0 1280 396" fill="none" xmlns="http://www.w3.org/2000/svg">
<path d="M761.311 220.441C758.408 227.409 752.963 233.054 747.087 237.92C737.694 245.701 726.81 251.961 714.853 254.959C703.839 257.732 692.267 257.667 680.85 257.602C641.094 257.329 601.293 257.083 561.501 256.802C559.654 256.773 557.761 256.771 555.878 256.733C541.818 256.411 527.146 254.779 516.949 245.578C503.723 233.701 499.218 212.98 506.382 189.98C515.022 162.264 529.066 135.69 550.526 115.736C571.978 95.8173 601.409 83.0659 631.186 85.0077C643.626 85.8056 655.743 89.0803 667.614 92.8972C687.543 99.3558 707.331 107.696 722.873 121.518C729.402 127.324 734.998 133.959 739.812 141.12C748.647 154.238 754.928 169.149 759.584 184.235C763.24 196.077 765.996 209.093 761.275 220.433L761.311 220.441Z" fill="#FF79C6"/>
<path opacity="0.44" d="M761.311 220.441C758.408 227.408 752.963 233.054 747.086 237.92C737.693 245.701 726.81 251.96 714.853 254.959C703.838 257.732 692.266 257.667 680.849 257.602C641.093 257.329 601.293 257.083 561.5 256.801C559.653 256.773 557.761 256.771 555.877 256.733C600.679 234.627 664.872 254.643 705.265 223.519C721.178 211.252 730.76 192.512 735.429 173.16C737.936 162.68 739.193 151.939 739.84 141.164C748.674 154.282 754.956 169.193 759.612 184.279C763.267 196.121 766.024 209.137 761.302 220.477L761.311 220.441Z" fill="#FFAADB"/>
<path d="M547.115 120.629C555.618 112.372 565.174 105.044 575.732 99.4951C585.542 94.3306 596.199 90.7959 607.229 88.9279C629.488 85.1647 652.804 87.964 674.261 94.9761C684.944 98.4335 695.254 102.966 704.962 108.556C714.331 113.953 723.13 120.603 730.206 128.643C737.977 137.488 743.373 147.868 747.792 158.616C750.087 164.198 752.129 169.869 754.135 175.532C756.291 181.532 758.394 187.594 759.808 193.791C761.124 199.589 761.999 205.62 761.397 211.523C760.862 216.991 759 222.029 755.626 226.443C749.316 234.736 739.962 241.061 730.449 245.47C710.546 254.717 687.821 256.716 665.887 256.05C639.886 255.275 613.924 251.429 587.943 252.988C565.725 254.319 539.784 260.394 520.152 246.232C511.359 239.884 506.654 230.007 505.306 219.657C503.843 208.34 506.212 196.663 509.67 185.922C512.67 176.612 516.612 167.565 521.022 158.817C525.715 149.536 530.966 140.502 537.22 132.12C540.236 128.072 543.49 124.156 547.079 120.62C548.385 119.355 546.1 117.607 544.793 118.871C537.017 126.513 530.652 135.356 525.004 144.596C519.815 153.045 515.261 161.908 511.247 170.938C506.479 181.666 502.592 192.905 501.005 204.543C499.491 215.712 500.22 227.679 505.776 237.873C511.145 247.72 520.489 254.35 531.242 257.674C543.147 261.349 555.571 261.242 567.825 260.23C574.602 259.673 581.356 258.886 588.144 258.444C594.695 258.021 601.235 257.971 607.805 258.116C621.164 258.458 634.465 259.687 647.815 260.553C671.847 262.134 696.259 262.453 719.418 255.413C730.043 252.171 740.294 247.262 748.985 240.478C753.456 236.965 757.728 232.992 760.897 228.305C764.297 223.297 766.222 217.673 766.694 211.664C767.694 198.607 763.703 185.746 759.331 173.508C755.197 161.89 750.836 150.255 744.561 139.514C738.67 129.429 730.8 120.673 721.428 113.51C712.425 106.586 702.263 101.113 691.782 96.6518C670.244 87.5547 646.586 82.7956 623.229 84.0427C611.687 84.6614 600.297 86.7436 589.407 90.4478C578.056 94.3045 567.556 100.093 558.144 107.305C553.464 110.881 549.054 114.783 544.858 118.924C543.551 120.189 545.836 121.938 547.143 120.673L547.115 120.629Z" stroke="#FBF5D0" stroke-width="6.34535"/>
<g opacity="0.44">
<path opacity="0.44" d="M608.322 238.521C614.318 238.641 620.287 238.717 626.275 238.873C632.145 239.038 637.978 239.194 643.804 238.898C655.438 238.377 667.059 236.462 677.991 232.581C688.715 228.762 698.356 222.693 706.346 214.802C710.033 211.177 713.414 207.216 716.225 202.893C719.098 198.473 721.446 193.664 723.631 188.891C726.14 183.407 728.293 177.8 730.235 172.105C732.124 166.472 733.984 160.796 735.369 155.005C735.531 154.33 734.443 154.032 734.181 154.646C732.28 159.524 730.589 164.49 728.579 169.342C726.63 174.097 724.499 178.807 722.129 183.386C719.759 187.964 717.105 192.437 714.063 196.592C711.084 200.649 708.097 204.742 704.73 208.481C697.693 216.262 688.997 222.256 679.242 226.382C669.018 230.696 657.996 233.017 646.939 234.352C640.493 235.139 634.001 235.801 627.531 236.206C621.033 236.567 614.592 236.528 608.095 236.401C606.748 236.379 607.037 238.401 608.347 238.414L608.322 238.521Z" fill="#FFAADB"/>
</g>
<path opacity="0.47" d="M578.841 104.258C572.273 107.982 566.253 112.476 560.809 117.633C558.016 120.27 555.379 123.057 552.891 126.03C550.395 129.038 548.016 132.037 546.952 135.839C546.48 137.491 548.912 138.786 550.168 137.735C553.012 135.373 555.016 132.322 557.352 129.501C559.626 126.777 562.037 124.124 564.662 121.71C569.954 116.704 575.903 112.343 582.291 108.726C583.589 107.985 583.682 105.979 582.827 104.873C581.823 103.581 580.167 103.561 578.869 104.302L578.841 104.258Z" fill="white"/>
<path opacity="0.47" d="M541.651 142.983C538.518 147.68 535.597 152.464 533.465 157.663C531.366 162.719 529.425 167.926 528.297 173.29C527.991 174.569 529.935 174.996 530.5 173.93C532.949 169.182 535.243 164.436 537.967 159.829C540.621 155.356 543.219 150.795 546.148 146.463C546.983 145.235 546.955 143.576 545.646 142.587C544.54 141.721 542.522 141.764 541.679 143.027L541.651 142.983Z" fill="white"/>
<path d="M608.805 177.417C607.456 181.601 609.14 186.511 613.1 188.848C615.066 189.994 617.294 190.528 619.563 190.244C621.869 189.97 623.834 188.862 625.389 187.206C626.89 185.612 628.47 182.723 627.524 180.543C627.146 179.702 625.741 179.441 625.227 180.294C624.661 181.21 624.532 182.231 624.075 183.174C623.697 183.947 623.136 184.677 622.463 185.229C621.01 186.459 619.235 186.936 617.312 186.739C615.353 186.533 613.564 185.616 612.454 183.961C611.372 182.35 611.055 180.284 611.606 178.463C611.821 177.725 611.561 176.874 610.747 176.567C610.042 176.285 609.074 176.617 608.814 177.381L608.805 177.417Z" fill="#520C05"/>
<path d="M641.031 179.456C641.98 183.401 639.361 187.244 635.172 187.481C633.291 187.595 631.425 186.998 630.067 185.734C629.337 185.071 628.796 184.266 628.418 183.424C628.02 182.503 627.994 181.482 627.515 180.579C626.952 179.543 625.58 179.628 625.069 180.632C624.118 182.508 625.409 185.183 626.491 186.794C627.694 188.547 629.519 189.96 631.576 190.564C636.128 191.879 640.998 189.927 643.14 185.82C644.206 183.784 644.565 181.316 643.981 179.073C643.778 178.31 643.104 177.736 642.269 177.837C641.506 177.955 640.864 178.703 641.023 179.492L641.031 179.456Z" fill="#520C05"/>
<path d="M672.961 178.382C670.027 177.568 667.138 176.726 664.205 175.912C661.279 175.061 658.382 174.256 655.562 173.13C655.94 173.972 656.346 174.857 656.724 175.699C656.817 175.308 657.096 175.112 657.473 174.827C658.031 174.434 657.175 174.943 657.788 174.639C658.059 174.479 658.357 174.362 658.664 174.21C660.161 173.442 661.621 172.664 663.118 171.896C666.113 170.359 669.537 168.962 671.981 166.655C672.984 165.693 672.377 163.708 670.763 163.997C667.009 164.676 663.533 166.774 660.167 168.41C657.334 169.761 653.072 171.107 652.823 174.728C652.751 175.838 653.503 176.731 654.616 176.922C657.508 177.427 660.315 178.286 663.147 179.039C666.008 179.836 668.914 180.606 671.783 181.368C672.623 181.569 673.529 181.335 673.887 180.482C674.175 179.762 673.82 178.663 672.952 178.418L672.961 178.382Z" fill="#520C05"/>
<path d="M583.074 182.453C585.781 181.147 588.488 179.842 591.195 178.537C593.902 177.231 596.581 175.882 599.384 174.824C600.107 174.547 600.772 173.542 600.54 172.735C600.001 170.953 598.946 169.875 597.232 169.127C595.665 168.414 593.849 168.092 592.177 167.654C590.359 167.182 588.549 166.674 586.731 166.201C584.812 165.667 582.839 165.195 580.829 165.202C580.129 165.222 579.496 165.446 579.216 166.131C578.999 166.717 579.186 167.55 579.764 167.877C582.651 169.694 586.139 170.453 589.384 171.418C591.002 171.918 592.666 172.391 594.284 172.891C594.832 173.022 595.372 173.189 595.903 173.391C596.142 173.523 596.178 173.532 596.049 173.426C596.187 173.496 596.316 173.602 596.453 173.673C596.582 173.779 596.888 174.115 596.729 173.814C596.916 173.032 597.103 172.251 597.29 171.469C594.869 173.031 592.244 174.318 589.655 175.614C587.021 176.937 584.387 178.26 581.761 179.547C579.921 180.459 581.243 183.329 583.111 182.461L583.074 182.453Z" fill="#520C05"/>
<g opacity="0.44">
<path d="M658.512 197.122C657.873 194.303 659.964 192.023 662.344 190.79C666.411 188.646 671.714 188.112 676.245 188.708C678.679 189.027 681.199 190.118 681.371 192.789C681.623 196.417 676.191 199.587 673.128 200.281C669.576 201.084 659.672 202.282 658.475 197.113L658.512 197.122Z" fill="#FFAADB"/>
<path d="M596.23 197.206C596.455 194.33 593.993 192.351 591.484 191.375C587.126 189.732 581.799 189.884 577.369 190.965C575.023 191.568 572.681 192.961 572.89 195.64C573.187 199.242 579.069 201.776 582.203 202.075C585.858 202.461 595.835 202.407 596.239 197.17L596.23 197.206Z" fill="#FFAADB"/>
</g>
<path d="M536.779 270.334L533.738 318.849L518.668 319.51L518.8 293.931L511.992 314.553H506.176L500.954 296.112L500.888 317.528L485.619 317.99L486.28 272.317L503.267 271.656L510.009 293.534L518.999 270.334H536.779ZM579.676 293.204C579.676 295.209 579.445 297.148 578.982 299.02C578.519 300.871 577.847 302.612 576.966 304.242C576.107 305.872 575.049 307.371 573.793 308.737C572.559 310.081 571.16 311.237 569.596 312.207C568.054 313.176 566.368 313.936 564.54 314.487C562.711 315.016 560.772 315.28 558.723 315.28C556.74 315.28 554.845 315.027 553.039 314.52C551.254 314.013 549.58 313.308 548.015 312.405C546.451 311.48 545.03 310.378 543.752 309.1C542.496 307.8 541.417 306.368 540.513 304.804C539.632 303.217 538.938 301.521 538.431 299.714C537.946 297.908 537.704 296.024 537.704 294.063C537.704 292.146 537.935 290.273 538.398 288.445C538.861 286.594 539.522 284.853 540.381 283.223C541.262 281.593 542.32 280.094 543.554 278.728C544.788 277.362 546.165 276.184 547.685 275.192C549.227 274.201 550.891 273.43 552.675 272.879C554.46 272.328 556.344 272.053 558.326 272.053C561.521 272.053 564.429 272.548 567.051 273.54C569.695 274.531 571.943 275.952 573.793 277.803C575.666 279.632 577.109 281.857 578.123 284.479C579.158 287.079 579.676 289.987 579.676 293.204ZM565.002 294.063C565.002 293.116 564.859 292.201 564.573 291.32C564.308 290.417 563.912 289.623 563.383 288.94C562.854 288.235 562.193 287.674 561.4 287.255C560.629 286.814 559.737 286.594 558.723 286.594C557.688 286.594 556.762 286.781 555.947 287.156C555.132 287.53 554.427 288.048 553.832 288.709C553.259 289.348 552.818 290.108 552.51 290.989C552.201 291.849 552.047 292.763 552.047 293.732C552.047 294.658 552.179 295.583 552.444 296.509C552.708 297.434 553.105 298.271 553.634 299.02C554.162 299.769 554.812 300.375 555.583 300.838C556.377 301.301 557.291 301.532 558.326 301.532C559.362 301.532 560.287 301.334 561.103 300.937C561.94 300.518 562.645 299.968 563.218 299.285C563.791 298.58 564.231 297.775 564.54 296.872C564.848 295.969 565.002 295.032 565.002 294.063ZM613.518 273.374L612.328 287.321C611.689 287.145 611.061 287.024 610.444 286.957C609.827 286.891 609.199 286.858 608.56 286.858C606.996 286.858 605.498 287.057 604.066 287.453C602.656 287.85 601.4 288.456 600.298 289.271C599.219 290.086 598.348 291.122 597.687 292.377C597.049 293.611 596.729 295.076 596.729 296.773C596.729 298.007 596.905 299.086 597.258 300.012C597.632 300.915 598.15 301.675 598.811 302.292C599.494 302.887 600.309 303.339 601.257 303.647C602.226 303.956 603.295 304.11 604.462 304.11C605.278 304.11 606.115 304.033 606.974 303.878C607.833 303.702 608.693 303.471 609.552 303.184C610.411 302.898 611.237 302.567 612.031 302.193C612.824 301.818 613.562 301.422 614.245 301.003L613.716 316.536C612.857 316.977 611.931 317.373 610.94 317.726C609.949 318.056 608.924 318.343 607.866 318.585C606.831 318.849 605.784 319.048 604.727 319.18C603.691 319.312 602.7 319.378 601.752 319.378C598.624 319.378 595.771 318.794 593.193 317.627C590.637 316.459 588.434 314.873 586.583 312.868C584.754 310.841 583.333 308.494 582.32 305.828C581.306 303.162 580.8 300.32 580.8 297.302C580.8 293.688 581.306 290.317 582.32 287.189C583.355 284.06 584.865 281.35 586.847 279.059C588.852 276.745 591.32 274.939 594.25 273.639C597.203 272.317 600.585 271.656 604.396 271.656C605.917 271.656 607.459 271.777 609.023 272.019C610.587 272.262 612.086 272.714 613.518 273.374ZM655.919 317.197L639.395 317.99L639.263 304.044H631.661L631.199 318.519H616.393L617.649 272.053L633.38 272.78L632.389 296.509H639.725L639.791 271.656L654.862 272.053L655.919 317.197ZM676.31 271.986L673.997 316.999L660.05 317.726L658.728 272.912L676.31 271.986ZM716.464 292.278C716.464 295.363 716.068 298.15 715.275 300.64C714.481 303.107 713.369 305.311 711.937 307.249C710.527 309.166 708.841 310.819 706.88 312.207C704.919 313.595 702.771 314.74 700.436 315.644C698.1 316.525 695.611 317.186 692.967 317.627C690.345 318.045 687.646 318.255 684.87 318.255C683.834 318.255 682.821 318.233 681.829 318.188C680.838 318.122 679.824 318.034 678.789 317.924L679.714 273.573C682.138 272.802 684.628 272.262 687.183 271.953C689.761 271.623 692.317 271.458 694.851 271.458C698.001 271.458 700.898 271.931 703.542 272.879C706.186 273.826 708.467 275.192 710.383 276.977C712.3 278.761 713.787 280.943 714.845 283.52C715.925 286.098 716.464 289.018 716.464 292.278ZM702.914 294.393C702.936 293.204 702.804 292.058 702.518 290.956C702.253 289.855 701.802 288.885 701.163 288.048C700.546 287.189 699.753 286.506 698.783 285.999C697.814 285.47 696.657 285.184 695.313 285.14L693.991 305.63C695.313 305.432 696.514 305.002 697.594 304.341C698.673 303.658 699.599 302.832 700.37 301.862C701.163 300.871 701.769 299.78 702.187 298.591C702.628 297.379 702.87 296.134 702.914 294.856V294.393ZM758.502 315.677L742.11 317.792L740.127 310.323H732.592L730.94 317.792L714.085 316.139L727.238 272.119L745.613 271.193L758.502 315.677ZM738.938 300.21L736.426 288.709L733.98 300.21H738.938ZM795.913 273.771L780.381 299.152L780.843 317.858H763.856L764.253 299.285L752.157 274.763L769.012 272.647L774.3 286.924L780.05 272.647L795.913 273.771Z" fill="#FBF5D0"/>
</svg>
